# xmcd
#
# Track frame offsets: 
#        150
#        18730
#        40037
#        62872
#        89265
#        106847
#        120212
#        132427
#        150075
#
# Disc length: 2237 seconds
#
# Revision: 0
# Processed by: cddbd v1.5.1PL0 Copyright (c) Steve Scherf et al.
# Submitted via: ExactAudioCopy v0.95a5
#
DISCID=6408bb09
DTITLE=Niko Riippa - Bohemian Breakfast Bar
DYEAR=2003
DGENRE=Blues
TTITLE0=Plastic Castle
TTITLE1=Conviction's a lemon
TTITLE2=On My Way
TTITLE3=Sky Song
TTITLE4=Meat Milk and Honey
TTITLE5=Little Blue Hippie
TTITLE6=Sleepwalking
TTITLE7=Sometimes
TTITLE8=For what it's worth
EXTD=
EXTT0=
EXTT1=
EXTT2=
EXTT3=
EXTT4=
EXTT5=
EXTT6=
EXTT7=
EXTT8=
PLAYORDER=
